<svg xmlns="http://www.w3.org/2000/svg" xmlns:xlink="http://www.w3.org/1999/xlink" width="159.566" height="144.371" viewBox="0 0 159.566 144.371">
  <defs>
    <clipPath id="clip-path">
      <rect id="Rectangle_1444" data-name="Rectangle 1444" width="144.371" height="159.566" fill="#00726f"/>
    </clipPath>
  </defs>
  <g id="Groupe_3153" data-name="Groupe 3153" transform="translate(159.566) rotate(90)" opacity="0.102">
    <g id="Groupe_3148" data-name="Groupe 3148" clip-path="url(#clip-path)">
      <path id="Tracé_9083" data-name="Tracé 9083" d="M80.369,135.269c-2.524-1.448-5.157-2.848-7.676-4.429-4.447-2.791-7.453-6.532-7.576-12.087a1.582,1.582,0,0,0-.992-1.153A45.79,45.79,0,0,0,57,116.878a13.051,13.051,0,0,1-7.289-2.05,34.094,34.094,0,0,1-9.291-9.165c-.933-1.275-.5-2.324,1.092-2.617A12.9,12.9,0,0,1,51.14,104.7a29.219,29.219,0,0,0,9.545,3.712c1.636.387,3.251.858,4.9,1.3a1.974,1.974,0,0,0-.465-2.65c-3.664-3.53-7.336-7.055-10.906-10.68a26,26,0,0,1-3.78-4.719c-1.083-1.8-2.85-1.9-4.47-2.269a21.375,21.375,0,0,0-4.007-.094c-3.113-.1-6.225-.3-9.338-.306a13.551,13.551,0,0,1-7.951-2.519c-2.778-1.9-5.91-3.279-8.811-5.012a27.964,27.964,0,0,1-4.43-3.292A2.325,2.325,0,0,1,11,76.042c.191-.44,1.279-.727,1.944-.685,2.231.141,4.451.46,6.884.467a39.124,39.124,0,0,0-3.792-2.86c-5.246-3.071-9.181-7.561-13.163-12a2.04,2.04,0,0,1-.294-1.892,2.268,2.268,0,0,1,1.865-.86c6.032,1.092,11.7,3.072,16.532,7.039,2.9,2.386,5.871,4.695,8.81,7.038l.553-.369c-.512-1.192-.977-2.408-1.55-3.57a36.929,36.929,0,0,1-2.1-4.049,2.98,2.98,0,0,1,.459-2.476c.776-.917,1.675-.163,2.41.448,5.682,4.733,10.782,9.962,13.79,16.857a26.072,26.072,0,0,1,1.472,5.335,3.7,3.7,0,0,0,3.193,3.192c-.515-1.224-1.008-2.331-1.45-3.458a44.72,44.72,0,0,1-2.7-13.1c-.1-1.3-.319-2.434-1.73-3.033-1.679-.714-3.3-1.563-4.934-2.384a7.539,7.539,0,0,1-2.377-1.372c-3.281-3.784-6.156-7.761-6.773-13.011-.2-1.711-1.243-3.333-1.958-4.969-.524-1.2-1.459-2.525.025-3.5,1.4-.918,2.3.419,3.12,1.328a21.657,21.657,0,0,1,1.745,2.378c2.144,3.151,4.424,6.224,6.36,9.5,1.488,2.517,2.513,5.3,3.791,7.948a20.039,20.039,0,0,0,1.314,2.062l.508-.228c-.269-1.295-.455-2.614-.822-3.88-1.488-5.131-3-10.255-4.589-15.355a3.756,3.756,0,0,0-1.369-1.7,20.275,20.275,0,0,0-7.612-3.422C17.483,38.871,8.441,32.671.569,24.652A2.3,2.3,0,0,1,.118,22.53a2.493,2.493,0,0,1,2.149-.809c11.839,2.977,22.182,8.468,30.1,18.043.823,1,2.162,1.565,3.5,2.5a16.781,16.781,0,0,0-5.191-9.2A38.891,38.891,0,0,1,19.708,16.423a69.133,69.133,0,0,0-3.733-8.181c-.692-1.445-.387-2.213,1.163-2.685a5.03,5.03,0,0,1,5.015,1.292A28.115,28.115,0,0,1,26.9,12.217a68.34,68.34,0,0,1,9.171,23.847,9.019,9.019,0,0,0,.31,1.271c.2.556.455,1.091.686,1.635l.551-.056a23.926,23.926,0,0,0-.433-5C35,26.661,35.754,19.978,40.7,14.037c2.025-2.434,3.61-2.135,4.693.86,1.535,4.249.805,8.472-.781,12.483-1.011,2.557-2.683,4.848-3.981,7.3A11.027,11.027,0,0,0,39.6,37.529a25.321,25.321,0,0,0-.316,3.262,18.153,18.153,0,0,0,.829,7.073c1.979,6.218,3.656,12.533,5.538,19.1.192-.813.411-1.479.5-2.163.333-2.537.463-5.113.99-7.607a19.261,19.261,0,0,1,1.875-4.135c.19-.39.506-.719.7-1.108q3.173-6.331,6.326-12.671a22.108,22.108,0,0,1,1.4-2.592c.867-1.274,2.059-1.242,2.883.079a6.723,6.723,0,0,1,.7,6.278,10.9,10.9,0,0,0-.779,6.239c.508,2.706-.566,4.968-1.74,7.315A21.272,21.272,0,0,1,48.448,66.768a4.071,4.071,0,0,0-1.027.977c-2.2,2.339-1.361,5.081-.981,7.74a36.881,36.881,0,0,0,7.9,18.093c.131.164.161.409.528.36.49-3.871.637-7.827,1.571-11.588.859-3.46.512-6.7.088-10.1a45.163,45.163,0,0,1,.133-8.331c.039-.611.7-1.607,1.165-1.662a2.722,2.722,0,0,1,1.986.97,38.061,38.061,0,0,1,2.526,3.8c.569-2.944,1.088-5.492,1.544-8.051.19-1.066.051-2.376,1.37-2.708,1.363-.343,2.023.816,2.677,1.758,2.188,3.154,2.016,6.728,1.732,10.288a38.7,38.7,0,0,1-3.422,13.748,2.476,2.476,0,0,0,.041,1.684,18.757,18.757,0,0,1-.1,12.687c-.177.5-.374,1.186-.769,1.4-1.458.776-1.547,2.157-1.672,3.48a3.017,3.017,0,0,0,.491,1.862,23.873,23.873,0,0,0,2.133,2.384c1.9-1.174,2.487-1.129,3.536.524,1.579,2.487,2.98,5.086,4.552,7.577.944,1.5,2.068,2.88,3.015,4.183l4.055-7.881a17.454,17.454,0,0,0-2.283-2.51c-3.818-2.962-4.986-7.1-5.078-11.594a69.781,69.781,0,0,1,.623-8.817c.18-1.679,1.519-2.182,2.837-1.128a13.9,13.9,0,0,1,5.468,8.507,26.839,26.839,0,0,0,3.114,7.855,77.05,77.05,0,0,1,3.68,8.169c.457,1.209.28,2.658.757,4,.158-7.648.271-15.3.5-22.943a70.155,70.155,0,0,1,.715-7.312,6.248,6.248,0,0,0-1.868-4.872,4.277,4.277,0,0,1-.767-.6c-3.036-3.512-6.178-6.945-9.028-10.6a14.96,14.96,0,0,1-2.177-5c-1.022-3.5-1.892-7.047-2.713-10.6a30.921,30.921,0,0,1-.795-5.463,2.355,2.355,0,0,1,1.148-1.894c.5-.177,1.508.4,1.972.932,1.436,1.635,2.72,3.4,4.435,5.076a41.548,41.548,0,0,0-.581-4.69c-1.4-5.909-.854-11.855-.44-17.8a2.121,2.121,0,0,1,1.27-1.429,1.865,1.865,0,0,1,1.66.6c3.418,5.149,6.038,10.613,6.518,16.917.269,3.539.7,7.066,1.065,10.6.027.256.167.5.691.874.511-1.332,1.032-2.661,1.529-4a40.2,40.2,0,0,1,1.663-4.4,2.131,2.131,0,0,1,1.831-.893,2.173,2.173,0,0,1,1.263,1.607c.479,7.735.444,15.435-2.833,22.694a21.08,21.08,0,0,1-2.469,4.038,4.022,4.022,0,0,0-.327,4.541c.211-.241.386-.358.444-.518a35.752,35.752,0,0,1,8.2-13.11c2.4-2.4,1.987-5.053.82-7.306-3.3-6.382-.7-11.8,2.112-17.291,1.031-2.017,2.127-4,3.121-6.037.583-1.194.777-3,2.586-2.564,1.761.425,1.382,2.18,1.206,3.484-.21,1.561-.707,3.081-1.045,4.626-.544,2.494-1.213,4.974-1.55,7.5a32.425,32.425,0,0,1-3.334,9.7,14.428,14.428,0,0,0-.712,2.674l.466.193c.458-.643.972-1.254,1.366-1.934,2.957-5.1,5.914-10.206,8.8-15.349a4.539,4.539,0,0,0,.334-2.188,13.674,13.674,0,0,0-.37-2.091,13.675,13.675,0,0,0-2.121-5.182,48.038,48.038,0,0,1-6.9-19.956c-.54-4.047-.506-8.17-.738-12.259-.058-1.033.23-1.883,1.321-2.154s1.7.4,2.2,1.286c5.449,9.738,8.487,20.091,7.921,31.337-.114,2.276-.566,4.543.526,6.734a17.734,17.734,0,0,0,2.842-10.232A36.887,36.887,0,0,1,122.7,14.717c1.036-2.58,2.351-5.046,3.445-7.6.749-1.752,1.346-3.571,1.99-5.367.559-1.557,1.49-1.9,2.88-.949a6.106,6.106,0,0,1,2.48,4.943c.341,4.369-.935,8.445-2.413,12.446A73.25,73.25,0,0,1,121.77,35.8a19.124,19.124,0,0,0-1.337,2.579l.477.379a36.207,36.207,0,0,0,3.581-4.313c3.936-6.515,9.312-10.642,17.182-10.826,2.459-.058,3.316,1.1,2.246,3.289a15.821,15.821,0,0,1-3.188,4.491,24.635,24.635,0,0,1-14.248,6.4,11.49,11.49,0,0,0-3.078,1.258,6.566,6.566,0,0,0-.917.687,22.83,22.83,0,0,0-7.139,8.546c-2.7,5.227-5.907,10.193-9.078,15.573a12.917,12.917,0,0,0,2.068-1.249c3.3-3.025,6.74-5.742,11.448-6.222a10.95,10.95,0,0,0,2.751-1.017,16.923,16.923,0,0,1,1.648-.718c3.818-1.07,7.635-2.147,11.479-3.114.7-.175,1.87-.119,2.19.307a2.979,2.979,0,0,1,.164,2.371,7.747,7.747,0,0,1-4.47,4.523c-1.163.544-2.563,1.141-3.205,2.134-2.414,3.736-6.216,4.783-10.12,5.7a20.729,20.729,0,0,1-11.613-.784,4.762,4.762,0,0,0-4.978,1.085A37.73,37.73,0,0,0,93.121,88.806a3.482,3.482,0,0,0,.06.545c1.6-1.246,3.064-2.492,4.632-3.588,2.728-1.906,5.533-3.7,8.273-5.589a5.506,5.506,0,0,0,1.435-1.486,32.843,32.843,0,0,1,8.391-8.906,2.6,2.6,0,0,1,2.275-.366c.494.326.666,1.479.6,2.238a32.962,32.962,0,0,1-.91,4.16c2.246-1.4,4.148-2.58,6.046-3.768.231-.145.424-.351.658-.489.938-.551,1.74-1.834,3.012-1,1.325.874.787,2.283.531,3.469-.7,3.249-3.021,5.382-5.4,7.417a38.313,38.313,0,0,1-12.906,7.616,1.781,1.781,0,0,0-1,.733,19.515,19.515,0,0,1-8.559,8.838c2.618,4.873,5.134,9.679,4.109,15.607,1.752-2.212,3.3-4.372,5.061-6.338,2.116-2.359,4.405-4.563,6.64-6.815.682-.687,1.461-1.232,2.467-.582,1.027.663.922,1.575.609,2.606-3.386,11.156-9.982,20.043-19.026,27.265-2.47,1.973-4.713,4.23-7.184,6.469l2.006,2.68a24.758,24.758,0,0,0,10.247-7.961,51.221,51.221,0,0,1,12.735-11.726,5.373,5.373,0,0,1,1.394-.845c.577-.158,1.41-.318,1.789-.029a2.144,2.144,0,0,1,.766,1.775,113.8,113.8,0,0,1-3.639,12.013c-2.115,5.3-6.712,7.552-12.052,8.42-2.959.481-5.957.727-9.185,1.108,1.038,1.458,2.092,2.809,2.98,4.262.292.478.437,1.506.156,1.786-.777.772-1.324,0-1.788-.642-1.119-1.553-2.189-3.147-3.407-4.618-.337-.408-1.124-.445-1.706-.646-.043-.015-.1.028-.157.039-4.051.869-3.989.878-4.6,5.03-.515,3.508-1.18,7-1.809,10.486-.139.771-.192,1.9-1.367,1.506-.388-.129-.721-1.264-.626-1.867.742-4.744,1.6-9.471,2.409-14.2a8.056,8.056,0,0,1,.189-1.459c.687-1.818,0-2.9-1.615-3.818a2.371,2.371,0,0,0-2.412-.107,50.838,50.838,0,0,1-13.123,3.936,13.622,13.622,0,0,1-11-3.1,38.139,38.139,0,0,1-8.327-9.855,2.358,2.358,0,0,1-.13-2.079,2.385,2.385,0,0,1,1.975-.678,45.737,45.737,0,0,1,17.977,6.184c3.381,2.122,7.1,3.1,9.75,2.833M94.18,57.218c.435-.073,1.111-.349,1.255-.177a1.784,1.784,0,0,1,.39,1.42c-1.177,3.779-2.348,7.564-3.721,11.273a3.777,3.777,0,0,0,.076,3.374c3.833-4.415,5.255-17.012,4.24-22.441-.738,2.218-1.467,4.4-2.2,6.585-3.22,1.7-5.09,7.173-3.5,10.713A22.833,22.833,0,0,0,91.8,65.492c.828-2.747,1.591-5.514,2.378-8.273M72.273,136.241A40.3,40.3,0,0,0,52.82,128.4c2.813,4.23,5.654,8.116,10,10.431,4.38,2.334,8.8.94,13.13-.359-1.744-.245-3.512-.242-5.209-.585-2.5-.505-4.96-1.213-7.4-1.956-.354-.107-.5-.89-.746-1.36a5.037,5.037,0,0,1,1.393-.476c.4-.018.8.312,1.225.416,2.351.587,4.708,1.153,7.063,1.727m30.286,3.441c1.052-.151,2.026-.236,2.975-.437,3.839-.811,7.557-1.859,9.832-5.485,2.386-3.8,3.515-8.033,4.377-12.6-6.322,3.873-11.142,8.971-15.544,14.957a12.519,12.519,0,0,0,1.622-.843c1.919-1.435,3.781-2.948,5.738-4.328.4-.282,1.116-.113,1.686-.152-.095.53-.033,1.175-.32,1.563a7.372,7.372,0,0,1-1.794,1.661c-2.782,1.882-5.6,3.71-8.571,5.668m-25.838-8.9c-1.622-2.293-3.185-4.382-4.608-6.563a19.906,19.906,0,0,1-1.89-3.8c-.167-.44.244-1.1.39-1.658a6.15,6.15,0,0,1,1.386.77c.292.275.337.8.555,1.171,1.238,2.131,2.495,4.252,3.745,6.376-1.188-7.135-3.5-13.727-8.089-19.743-.363,2.362-.711,4.344-.968,6.339-1.074,8.33,1.959,13.879,9.479,17.107m19.02-12.275.544.037a10.382,10.382,0,0,0,.439-1.512c.327-2.376.563-4.766.952-7.131.09-.545.657-1.011,1-1.513.326.53.884,1.041.928,1.593a13.146,13.146,0,0,1-.191,3.424c-.557,2.975-1.222,5.928-1.867,9,2.082-2.7,3.961-5.44,4.746-8.749a9.812,9.812,0,0,0,.233-3.4,23.369,23.369,0,0,0-3.769-9.854c-.415-.64-1.593-.823-2.46-1.067a5.484,5.484,0,0,0-.691,1.582,6.373,6.373,0,0,0-.217,1.783c.1,5.269.229,10.537.349,15.805M27.888,77.743l.148-.412q-5.058-3.319-10.117-6.637a4.123,4.123,0,0,1-1.085-.715c-.253-.333-.521-1.055-.372-1.21a1.793,1.793,0,0,1,1.333-.447,3.306,3.306,0,0,1,1.284.686q6.1,4.07,12.17,8.138a9.785,9.785,0,0,0-3.627-4.1c-2.6-1.991-5.243-3.947-7.744-6.062-4.212-3.561-9.193-5.293-14.509-6.394,3.469,3.782,6.871,7.573,11.255,10.388A63.354,63.354,0,0,1,22.615,76a4.264,4.264,0,0,0,1.465.87c1.25.358,2.536.593,3.807.877M86.534,58.706c-.036-.556-.029-.774-.067-.984-.712-3.917-1.445-7.831-2.133-11.753-.132-.752-.555-1.82.651-1.975.373-.048,1.116.851,1.276,1.431A58.279,58.279,0,0,1,87.5,51.178c.516,3.042.938,6.1,1.4,9.151l.4.011a23.18,23.18,0,0,0,.259-3.673c-.392-4.678-.755-9.367-1.406-14.013-.625-4.459-2.564-8.459-5.147-12.582-.46,5.578-.741,10.72.458,15.852a14.061,14.061,0,0,1,.49,5.35c-.5,2.931.829,5.01,2.579,7.432m25.551,3.439c.679-.131.936-.155,1.177-.23,2.543-.8,5.07-1.652,7.637-2.362.518-.143,1.185.255,1.784.4-.371.5-.641,1.171-1.135,1.448a14.114,14.114,0,0,1-2.749,1.015c-2.218.687-4.446,1.342-6.908,2.082,4.069,1.185,7.656.159,11.289-.842a8.076,8.076,0,0,0,4.642-3.089,10.605,10.605,0,0,1,5.006-3.8,4.98,4.98,0,0,0,3.254-3.307c-1.163.4-2.07.761-3,1.031-2.292.665-4.6,1.29-6.9,1.929-.83.231-1.667.436-2.49.687-1.762.538-3.492,1.21-5.282,1.622a15.22,15.22,0,0,0-6.326,3.413m-61.91.974.16.222a11.873,11.873,0,0,0,2.227-1.894c1.676-2.336,3.191-4.788,4.8-7.17a6.086,6.086,0,0,0,.857-4.714,11.336,11.336,0,0,1,.721-6.729,5.176,5.176,0,0,0,.025-4.207c-2.012,3.59-4,7.129-5.979,10.67-.053.094-.068.208-.116.306-.836,1.7-1.764,3.371-2.49,5.121-.854,2.059-1.535,4.191-2.291,6.292l.576.228c.27-.448.573-.881.805-1.348,1.093-2.2,2.129-4.425,3.279-6.591.223-.419.865-.616,1.314-.916a8.148,8.148,0,0,1,.52,1.648c.036.33-.254.7-.423,1.046q-1.989,4.02-3.988,8.036m8.682,24.268.747.652c.768-1,1.558-1.976,2.3-2.991,5.052-6.883,6.255-14.719,5.552-22.98A10.484,10.484,0,0,0,66.292,59.2a68.768,68.768,0,0,1-6.152,17.86,50.993,50.993,0,0,0-2.287,7.226l.447.16c.137-.161.281-.318.41-.486a31.3,31.3,0,0,0,5.267-12.038c.176-.737.428-1.7,1.444-1.251.37.164.648,1.178.53,1.706a33.156,33.156,0,0,1-6.041,13.46c-.384.491-.7,1.032-1.054,1.55m67.273-14.394c-5.524,4.2-11.751,6.57-18.139,8.67-1.966.646-3.7,1.987-5.545,3.011l.211.408c.429-.047.861-.075,1.287-.143a35.221,35.221,0,0,0,11.559-4.4c.48-.267,1.241-.029,1.872-.025-.254.562-.352,1.381-.788,1.646a31.9,31.9,0,0,1-13.235,4.9,25.233,25.233,0,0,0-2.488.511c8.491,1.868,23.944-7.135,25.266-14.578M64.988,115.524l.139-.422a10.053,10.053,0,0,0-1.617-.724c-4.121-1.051-8.26-2.034-12.37-3.126-.494-.131-.848-.79-1.267-1.2.555-.256,1.142-.778,1.659-.716a35.469,35.469,0,0,1,4.316.916c3.093.772,6.178,1.577,9.266,2.369l.245-.477a8.908,8.908,0,0,0-1.564-.77C58.754,110,53.613,109.017,49.126,106a8.075,8.075,0,0,0-6.518-.739,72.452,72.452,0,0,0,7.372,7.256,9.487,9.487,0,0,0,7.346,2.176,17.312,17.312,0,0,1,3.751.206c1.31.149,2.608.409,3.911.62m59.682-88.692c.172-.1.29-.13.329-.2,3.1-5.746,5.619-11.713,6.471-18.242.257-1.971.277-4.035-1.467-5.787-2.19,7.749-7.627,14.247-7.182,22.655.922-2.938,1.711-5.916,2.527-8.885.2-.735.451-1.69,1.463-1.23.36.163.613,1.174.487,1.694-.8,3.324-1.725,6.618-2.628,10M18.5,7.294l-.413.481c3.845,6.66,4.79,14.859,10.934,20.3a11.344,11.344,0,0,0-1.063-2.168C26.785,23.938,25.554,22,24.453,19.99c-.207-.376.094-1.031.161-1.557a4.75,4.75,0,0,1,1.489.524,4.842,4.842,0,0,1,.9,1.356q2.246,3.739,4.485,7.482a46.967,46.967,0,0,0-6.3-14.463,30.991,30.991,0,0,0-4.17-4.786A8.983,8.983,0,0,0,18.5,7.294m18.455,79.2c-.5-.158-.988-.322-1.486-.473-3.909-1.185-7.815-2.383-11.733-3.539-.805-.238-1.632-.527-1.2-1.473.166-.362,1.217-.592,1.763-.46,2.062.5,4.083,1.168,6.117,1.781q5.128,1.546,10.253,3.1c-8.168-5.271-17.351-6.909-26.793-7.707a27.045,27.045,0,0,0,3.889,2.439c2.391,1.306,5.087,2.252,7.113,3.984,3.668,3.135,7.777,2.816,12.075,2.344M89.582,73.035C87.7,63.466,82.533,55.65,76.551,48.247a31.159,31.159,0,0,0,.929,4.494q1.2,4.584,2.4,9.167c.345,1.3.411,2.82,1.146,3.856a67.226,67.226,0,0,0,4.885,5.593,2.562,2.562,0,0,0-.338-1.656c-1.838-3.6-3.69-7.192-5.521-10.8-.362-.712-.974-1.618.157-2.044.365-.138,1.327.543,1.608,1.068,2.036,3.8,3.968,7.659,5.931,11.5q.92,1.8,1.833,3.605m-4.4,38.134a4.339,4.339,0,0,0-.116-.53,38.212,38.212,0,0,0-6.319-11.559c-.5-.671-1.648-1.458-.48-2.309,1.125-.819,1.6.471,2.119,1.135,1.055,1.352,2.019,2.775,2.811,3.877-.7-2.383-1.467-5.064-2.285-7.728a12.265,12.265,0,0,0-4.164-6.142c-.625,3.87-.965,7.561-.093,11.184a14.529,14.529,0,0,0,2.416,5.227c1.854,2.459,4.1,4.624,6.111,6.844M107.534,3.135c-.017,9.4,1.458,18.126,5.476,26.321-.128-1.356-.41-2.68-.669-4.009-.491-2.517-1.023-5.028-1.405-7.561-.069-.455.5-1.006.77-1.512a7.48,7.48,0,0,1,1.164,1.078,2.879,2.879,0,0,1,.254,1.1c.464,2.45.926,4.9,1.469,7.779.631-4.872-3.469-18.193-7.058-23.2M3.078,24.143A55.337,55.337,0,0,0,25.442,38.349c-2.965-2.09-6.017-4.048-9.032-6.06-.7-.465-2.029-.855-1.23-2.03.781-1.149,1.629-.061,2.372.361.71.4,1.371.893,2.056,1.34q2.007,1.308,4.016,2.612A48.066,48.066,0,0,0,3.078,24.143m98.19,100.387.522.318c1.73-3.183,3.426-6.384,5.223-9.529.312-.547,1.2-1.306,1.559-1.184,1.1.374.614,1.31.262,2.048-.833,1.748-1.7,3.481-2.552,5.22a43.531,43.531,0,0,0,10.38-17.831,60.063,60.063,0,0,0-15.394,20.958m-23.691-3.611a23.689,23.689,0,0,0,10.188,16.333c.6-1.726.77-3.04-.419-4.333-1.14-1.24-2.091-2.652-3.159-3.962-2.192-2.689-4.406-5.36-6.611-8.038m64.4-95.187c-3.977-.7-11.341,2.806-13.547,6.931,1.72-.955,3.417-1.9,5.121-2.84.723-.4,1.609-.947,2.022.172.133.361-.565,1.254-1.085,1.588-1.807,1.16-3.7,2.183-5.566,3.257,3.946.146,12.876-5.049,13.055-9.107M38.35,29.831c.69-2.5,1.215-4.6,1.892-6.659.122-.369.867-.532,1.325-.79a4.537,4.537,0,0,1,.539,1.366,5.509,5.509,0,0,1-.4,1.4c-.435,1.8-.852,3.6-1.275,5.395,3.537-4.074,4.705-12.515,2.4-15.81-4.158,4.146-5.058,9.222-4.483,15.1M88.481,131.04c1.741-4.024.155-7.387-1.344-10.137l-3.761,3.784,5.105,6.353M91.1,129.9a20.273,20.273,0,0,0,2.932-12.184c-.243-3.748-.8-7.475-1.094-10.127L91.1,129.9M42.05,83.891l.612-.436C40.671,75.668,35.332,70.229,29.4,65.18l2.918,5.552c1-1.449,1.866-.686,2.524.53,1.757,3.246,3.418,6.544,5.189,9.783a28.86,28.86,0,0,0,2.016,2.846m57.681,6.041c-2.721-1.2-2.764-1.114-4.639.565-2.585,2.313-1.974,5.2-1.677,8.131a4.7,4.7,0,0,0,1.4-1.589,21.291,21.291,0,0,1,1.31-2.869c1.084-1.482,2.373-2.814,3.6-4.238m-38.2,10.5.428-.142c-.066-.664.122-1.62-.245-1.939-1.29-1.121-1.242-2.592-1.405-4.027-.17-1.488-.283-2.982-.425-4.505-2.752,1.124-2.685,1.214-2.787,3.736-.14,3.444,2.415,4.951,4.435,6.877m29.761,34.73c4.431-2.692,6.915-6.195,7.425-11.038-2.517,3.125-4.931,6.329-7.3,9.571-.206.282-.082.8-.129,1.467M37.513,81l.433-.31-5.108-9.1c-.906,3.893,1.478,8.255,4.675,9.413m66.277-33.43c1.961-.533,2.391-.155,2.1,1.612-.22,1.32-.477,2.634-.718,3.95l.494.1,2.6-13.171a37.7,37.7,0,0,0-2.564,3.415,41.218,41.218,0,0,0-1.9,4.1m-66.5,13.063.485-.42c-1.4-1.843-2.853-3.648-4.182-5.54-1.307-1.859-2.488-3.806-3.723-5.714l-.264.1,2.254,8.481c1.575-1.8,1.915-1.787,2.957-.35.829,1.144,1.649,2.295,2.473,3.442m23.953,9.209L58.9,65.355l-.452.173a19.3,19.3,0,0,0,.721,8.523,11.627,11.627,0,0,0-.165-2.372,2.769,2.769,0,0,1,.24-1.785c.243-.286,1.093-.056,1.994-.056M79.99,120.264c1.211-2.253,2.287-4.138,3.226-6.088a4.554,4.554,0,0,0,.036-1.8l-.533,0c-1.7,2.221-3.043,4.575-2.728,7.893m1.705,1.547c3.519-1.635,4.54-3.968,2.868-5.987L81.7,121.811M116.737,72.2l-.41-.285-3.951,3.7c1.64-.237,2.312.227,2.119,1.7l.526-.187,1.716-4.926M64.765,93.714a14.722,14.722,0,0,0-.2-8.371l-.5.015c.233,2.757.466,5.513.706,8.356m26.218,43.962-1.626,2.971.393.347,3.2-.654-1.967-2.664M87.93,114.063c.558-3.663-1.119-6.623-2.931-9.534.509,1.574,1.257,3.066,1.763,4.637.513,1.593.788,3.262,1.168,4.9m18.506-23.672-.627-.554-4.744,5.6.4.359,4.975-5.4m-16.2,25.744c-.3,1.611-2.244,3.2-.448,5.115.157-1.79.3-3.452.448-5.115" transform="translate(0 0)" fill="#00726f"/>
    </g>
  </g>
</svg>
